<?xml version="1.0" standalone="no"?>
<!DOCTYPE svg PUBLIC "-//W3C//DTD SVG 20010904//EN"
 "http://www.w3.org/TR/2001/REC-SVG-20010904/DTD/svg10.dtd">
<svg version="1.0" xmlns="http://www.w3.org/2000/svg"
 width="1024.000000pt" height="1024.000000pt" viewBox="0 0 1024.000000 1024.000000"
 preserveAspectRatio="xMidYMid meet">
<metadata>
Created by potrace 1.14, written by Peter Selinger 2001-2017
</metadata>
<g transform="translate(0.000000,1024.000000) scale(0.100000,-0.100000)"
fill="#000000" stroke="none">
<path d="M7470 9090 c-63 -6 -105 -26 -148 -70 -56 -56 -56 -48 -56 -771 l-1
-666 -55 46 c-30 25 -57 48 -60 51 -3 3 -26 22 -52 43 -26 21 -53 43 -60 50
-7 7 -29 24 -48 38 -19 15 -45 35 -56 45 -12 11 -106 89 -210 174 -103 85
-232 191 -285 235 -53 44 -116 96 -140 115 -24 19 -71 58 -104 85 -33 28 -149
124 -258 213 -109 89 -204 167 -210 172 -7 6 -25 22 -42 36 -89 75 -253 164
-325 176 -3 1 -30 7 -60 14 -147 34 -438 -3 -530 -68 -13 -10 -29 -18 -35 -18
-21 0 -233 -155 -315 -230 -13 -13 -85 -72 -128 -105 -7 -5 -21 -17 -30 -26
-9 -8 -39 -33 -67 -55 -54 -43 -91 -73 -109 -89 -6 -6 -85 -71 -176 -145 -91
-74 -167 -137 -170 -140 -3 -3 -79 -66 -170 -140 -91 -74 -167 -137 -170 -140
-3 -3 -41 -35 -85 -70 -85 -68 -98 -79 -130 -107 -12 -10 -52 -43 -90 -74 -39
-31 -80 -65 -91 -75 -12 -11 -88 -73 -170 -139 -81 -66 -155 -127 -163 -135
-9 -8 -43 -36 -76 -62 -33 -25 -69 -54 -80 -65 -11 -10 -54 -45 -95 -78 -41
-33 -77 -62 -80 -65 -3 -3 -41 -35 -85 -70 -44 -36 -82 -68 -85 -71 -3 -3
-221 -183 -485 -399 -405 -333 -816 -671 -980 -805 -22 -19 -169 -139 -327
-269 -317 -260 -334 -280 -344 -384 -6 -56 -4 -64 24 -106 30 -44 326 -414
449 -561 73 -88 125 -117 204 -112 51 3 63 8 125 58 61 48 103 82 138 114 6 6
45 37 86 70 41 33 77 62 80 65 3 3 28 23 55 45 28 22 55 45 60 51 6 6 33 28
60 50 28 21 52 41 55 44 3 3 55 46 115 95 61 49 115 94 121 100 6 5 28 24 48
40 21 17 48 38 60 49 11 10 41 35 66 55 25 20 47 38 50 41 3 3 41 35 85 70 97
79 124 102 139 115 6 6 61 51 121 100 61 49 112 92 115 95 3 3 30 25 60 50 30
25 60 49 66 55 6 5 29 24 50 40 36 29 96 78 120 100 6 6 26 21 44 35 18 14 38
30 44 36 6 6 77 64 156 129 80 66 147 121 150 125 3 3 48 40 100 82 52 42 104
85 115 95 11 10 40 34 65 53 24 19 56 45 70 57 14 13 111 93 215 179 105 86
201 166 215 178 14 11 62 50 105 86 44 35 82 67 85 70 3 3 41 35 85 70 44 35
82 67 85 70 3 3 43 37 90 75 47 38 87 71 90 74 3 4 39 33 80 66 41 33 77 62
80 65 3 3 30 25 60 50 30 25 57 47 60 50 11 11 78 66 109 90 33 24 47 36 101
83 14 12 61 51 105 87 44 36 82 68 85 71 16 21 92 41 155 41 95 1 149 -24 251
-117 7 -5 29 -24 50 -41 22 -18 112 -92 200 -165 89 -74 192 -159 229 -189 37
-30 79 -65 94 -78 14 -13 42 -35 61 -50 19 -15 40 -31 46 -37 6 -5 32 -28 58
-50 27 -22 57 -47 66 -55 10 -8 33 -26 50 -40 18 -14 37 -30 44 -35 6 -6 88
-73 181 -150 94 -77 172 -142 175 -145 3 -3 109 -91 235 -195 127 -104 232
-191 235 -194 3 -4 39 -33 80 -66 72 -57 110 -88 134 -110 6 -6 36 -30 66 -55
30 -25 57 -47 60 -50 3 -3 39 -32 80 -64 41 -33 93 -76 116 -95 22 -20 51 -45
65 -56 86 -70 135 -110 139 -115 3 -3 21 -17 40 -31 19 -15 49 -39 67 -55 17
-16 45 -40 63 -54 17 -14 40 -32 49 -40 10 -8 79 -64 152 -125 73 -60 226
-186 339 -280 113 -93 225 -186 249 -205 51 -41 65 -53 122 -101 90 -76 254
-211 287 -237 19 -15 44 -35 56 -45 11 -10 30 -26 41 -35 89 -75 175 -140 198
-150 40 -17 106 -14 152 7 35 15 56 36 135 135 8 10 20 23 25 30 6 6 55 67
110 136 55 69 103 127 106 130 3 3 41 50 85 105 43 55 82 102 86 105 15 12 28
64 28 113 -1 84 -35 143 -124 212 -21 17 -44 35 -50 40 -10 9 -242 198 -832
676 -104 85 -207 168 -228 184 -22 17 -44 35 -50 40 -6 6 -70 58 -141 115
l-130 105 0 1244 c0 954 -3 1253 -12 1285 -7 24 -29 59 -48 79 -68 70 -55 68
-605 70 -272 1 -520 0 -550 -3z"/>
<path d="M5042 7052 c-29 -11 -63 -28 -75 -39 -12 -11 -29 -25 -37 -32 -8 -6
-28 -23 -45 -37 -16 -14 -61 -51 -100 -82 -38 -31 -72 -59 -75 -62 -3 -3 -30
-25 -60 -50 -30 -24 -62 -51 -71 -60 -26 -24 -59 -50 -64 -50 -3 0 -13 -8 -23
-17 -23 -22 -62 -55 -132 -113 -30 -25 -57 -47 -60 -50 -3 -3 -39 -32 -80 -65
-41 -33 -82 -67 -90 -75 -8 -8 -49 -42 -90 -75 -41 -32 -77 -62 -80 -65 -3 -3
-90 -75 -194 -160 -192 -158 -385 -317 -421 -348 -11 -10 -45 -38 -75 -62 -30
-25 -57 -47 -60 -50 -3 -3 -39 -33 -80 -65 -41 -33 -82 -67 -90 -75 -8 -8 -49
-42 -90 -75 -41 -32 -77 -62 -80 -65 -3 -3 -30 -25 -60 -50 -30 -25 -57 -47
-60 -50 -3 -4 -41 -35 -85 -71 -44 -35 -91 -74 -105 -86 -14 -12 -92 -77 -175
-144 -82 -68 -152 -126 -155 -129 -3 -3 -25 -21 -50 -40 -25 -19 -52 -41 -60
-50 -8 -8 -46 -40 -85 -71 -38 -31 -80 -65 -91 -75 -12 -11 -65 -54 -117 -96
l-95 -77 1 -1478 c0 -1355 1 -1482 17 -1529 18 -58 50 -101 97 -134 78 -54 34
-52 1159 -52 l1042 0 54 24 c75 34 122 79 155 146 l28 57 1 900 c1 611 5 913
13 940 24 91 109 174 197 193 23 5 320 9 660 8 569 -1 622 -2 653 -18 19 -10
39 -18 46 -18 6 0 27 -17 46 -37 94 -101 89 -37 89 -1073 l1 -895 30 -62 c32
-67 86 -119 154 -148 37 -15 125 -17 1081 -17 573 0 1056 3 1074 7 90 20 169
95 200 189 10 31 13 345 13 1517 l0 1478 -29 24 c-28 24 -224 185 -254 210
-47 38 -151 124 -190 157 -125 104 -304 252 -375 310 -44 35 -82 67 -85 70 -3
3 -68 58 -145 121 -77 63 -149 122 -160 132 -11 9 -94 77 -185 152 -91 75
-177 146 -191 158 -14 12 -72 60 -130 107 -57 46 -106 87 -109 90 -3 3 -43 37
-90 76 -47 38 -90 73 -96 79 -6 5 -29 24 -50 40 -21 17 -52 42 -69 56 -36 31
-58 49 -155 129 -41 34 -86 72 -100 83 -14 12 -48 40 -75 62 -28 21 -52 42
-55 45 -3 3 -54 46 -115 95 -60 49 -112 92 -115 95 -3 3 -43 37 -90 76 -47 38
-91 75 -98 82 -8 7 -30 25 -50 40 -37 27 -66 51 -107 87 -12 11 -31 27 -41 35
-129 103 -143 110 -229 116 -42 3 -76 -1 -113 -14z m-40 -1521 c25 -12 61 -38
82 -58 l36 -37 32 30 c18 16 35 32 38 35 3 4 25 17 50 30 64 33 177 34 239 1
93 -49 146 -139 145 -247 0 -98 -23 -141 -138 -260 -289 -299 -334 -342 -356
-348 -22 -6 -48 16 -243 215 -247 253 -270 287 -269 392 1 113 58 204 157 253
42 20 61 23 116 20 41 -3 85 -13 111 -26z"/>
</g>
</svg>
